<svg xmlns="http://www.w3.org/2000/svg" viewBox="0 0 13.64 12.97"><defs><style>.cls-1{opacity:0.36;}.cls-2{fill:#9ca7ad;}</style></defs><title>Asset 5</title><g id="Layer_2" data-name="Layer 2"><g id="Layer_1-2" data-name="Layer 1"><g class="cls-1"><path class="cls-2" d="M6.82,2.89,7.64,5.1l.23.63.67,0,2.36.09L9,7.31l-.52.41.18.64.64,2.27-2-1.31L6.82,9l-.56.37-2,1.31.64-2.27.18-.64L4.6,7.31,2.74,5.85,5.1,5.75l.67,0L6,5.1l.82-2.21M6.82,0,5.06,4.75,0,5,4,8.09,2.6,13l4.21-2.81L11,13,9.66,8.09l4-3.14-5.06-.2L6.82,0Z"/></g></g></g></svg>