<svg xmlns="http://www.w3.org/2000/svg" viewBox="0 0 46.57 22.49">
  <title>new</title>
  <g id="Layer_2" data-name="Layer 2">
    <g id="Layer_1-2" data-name="Layer 1">
      <path d="M41.68,22.49H4.89A4.9,4.9,0,0,1,0,17.6V4.89A4.9,4.9,0,0,1,4.89,0H41.68a4.9,4.9,0,0,1,4.89,4.89V17.6A4.9,4.9,0,0,1,41.68,22.49ZM4.89,1A3.9,3.9,0,0,0,1,4.89V17.6a3.9,3.9,0,0,0,3.89,3.89H41.68a3.9,3.9,0,0,0,3.89-3.89V4.89A3.9,3.9,0,0,0,41.68,1ZM19.4,15.18H18.18L13.53,8.06v7.12H12.3V5.94h1.23l4.67,7.15V5.94H19.4Zm4.83.13A3,3,0,0,1,22,14.39a3.41,3.41,0,0,1-.88-2.45v-.21a4.13,4.13,0,0,1,.39-1.83,3.05,3.05,0,0,1,1.09-1.26,2.75,2.75,0,0,1,1.52-.45,2.57,2.57,0,0,1,2.08.88,3.82,3.82,0,0,1,.74,2.53v.49H22.26a2.44,2.44,0,0,0,.59,1.64,1.86,1.86,0,0,0,1.44.63,2,2,0,0,0,1.05-.25,2.64,2.64,0,0,0,.76-.67l.72.56A2.89,2.89,0,0,1,24.24,15.3Zm-.15-6.16a1.57,1.57,0,0,0-1.19.52,2.51,2.51,0,0,0-.6,1.45h3.44V11a2.24,2.24,0,0,0-.48-1.39A1.47,1.47,0,0,0,24.09,9.15Zm10.26,4.41,1.32-5.25h1.17l-2,6.87h-1L32.23,10,30.6,15.18h-1l-2-6.87h1.17l1.35,5.14,1.6-5.14h.95Z" fill="#13a54e"/>
    </g>
  </g>
</svg>
